<svg width="126" height="126" viewBox="0 0 126 126" fill="none" xmlns="http://www.w3.org/2000/svg">
<path d="M63 7.00001C70.3539 7.00001 77.6361 8.44852 84.4303 11.2627C91.2246 14.0772 97.3979 18.2021 102.598 23.4022C107.798 28.6022 111.923 34.7755 114.737 41.5698C117.551 48.3641 119 55.6459 119 63.0002C119 70.3541 117.551 77.6362 114.737 84.4302C111.923 91.2245 107.798 97.3981 102.598 102.598C97.3979 107.798 91.2246 111.923 84.4303 114.737C77.636 117.551 70.3539 119 63 119C55.6461 119 48.3639 117.551 41.5697 114.737C34.7757 111.923 28.6021 107.798 23.4021 102.598C18.2021 97.3981 14.0772 91.2245 11.263 84.4302C8.4485 77.6362 7 70.3541 7 63.0001C7 55.6459 8.4485 48.3641 11.263 41.5698C14.0772 34.7755 18.2021 28.6022 23.4021 23.4022C28.6021 18.2021 34.7757 14.0772 41.5697 11.2627C48.364 8.44852 55.6461 7 63 7.00001Z" stroke="#DBE6F0" stroke-width="13.906" stroke-linecap="round"/>
<path d="M63.0001 7C75.3727 7 87.3971 11.0976 97.1952 18.6525C106.993 26.2077 114.014 36.7949 117.16 48.761C120.305 60.7271 119.4 73.3979 114.585 84.7952C109.769 96.1924 101.315 105.674 90.542 111.759C79.7692 117.844 67.2842 120.19 55.0374 118.431C42.7905 116.672 31.4709 110.906 22.8464 102.034C14.2222 93.1628 8.77887 81.6849 7.36626 69.3933C5.95365 57.1013 8.65156 44.6879 15.0387 34.0912" stroke="#8A3EEC" stroke-width="13.906" stroke-linecap="round"/>
<path d="M38.96 70.1921C38.064 70.1921 37.244 70.0721 36.5 69.8321C35.764 69.5921 35.132 69.2521 34.604 68.8121C34.076 68.3721 33.664 67.8401 33.368 67.2161C33.08 66.5921 32.936 65.8961 32.936 65.1281C32.936 64.1041 33.188 63.2401 33.692 62.5361C34.196 61.8241 34.98 61.2961 36.044 60.9521C35.196 60.6001 34.56 60.1001 34.136 59.4521C33.72 58.8041 33.512 58.0241 33.512 57.1121C33.512 56.4561 33.644 55.8441 33.908 55.2761C34.18 54.7081 34.556 54.2161 35.036 53.8001C35.516 53.3761 36.088 53.0481 36.752 52.8161C37.424 52.5761 38.16 52.4561 38.96 52.4561C39.76 52.4561 40.492 52.5761 41.156 52.8161C41.828 53.0481 42.404 53.3761 42.884 53.8001C43.364 54.2161 43.736 54.7081 44 55.2761C44.272 55.8441 44.408 56.4561 44.408 57.1121C44.408 58.0241 44.196 58.8041 43.772 59.4521C43.348 60.1001 42.716 60.6001 41.876 60.9521C42.94 61.2961 43.724 61.8241 44.228 62.5361C44.732 63.2401 44.984 64.1041 44.984 65.1281C44.984 65.8961 44.836 66.5921 44.54 67.2161C44.252 67.8401 43.844 68.3721 43.316 68.8121C42.788 69.2521 42.152 69.5921 41.408 69.8321C40.672 70.0721 39.856 70.1921 38.96 70.1921ZM38.96 67.8761C39.448 67.8761 39.876 67.8081 40.244 67.6721C40.612 67.5281 40.92 67.3321 41.168 67.0841C41.424 66.8361 41.616 66.5401 41.744 66.1961C41.872 65.8521 41.936 65.4801 41.936 65.0801C41.936 64.1281 41.672 63.4081 41.144 62.9201C40.616 62.4321 39.888 62.1881 38.96 62.1881C38.032 62.1881 37.304 62.4321 36.776 62.9201C36.248 63.4081 35.984 64.1281 35.984 65.0801C35.984 65.4801 36.048 65.8521 36.176 66.1961C36.304 66.5401 36.492 66.8361 36.74 67.0841C36.996 67.3321 37.308 67.5281 37.676 67.6721C38.044 67.8081 38.472 67.8761 38.96 67.8761ZM38.96 59.8601C39.44 59.8601 39.844 59.7841 40.172 59.6321C40.5 59.4801 40.764 59.2801 40.964 59.0321C41.164 58.7761 41.304 58.4881 41.384 58.1681C41.472 57.8401 41.516 57.5041 41.516 57.1601C41.516 56.8321 41.464 56.5201 41.36 56.2241C41.256 55.9281 41.1 55.6681 40.892 55.4441C40.684 55.2121 40.42 55.0281 40.1 54.8921C39.78 54.7561 39.4 54.6881 38.96 54.6881C38.52 54.6881 38.14 54.7561 37.82 54.8921C37.5 55.0281 37.232 55.2121 37.016 55.4441C36.808 55.6681 36.652 55.9281 36.548 56.2241C36.452 56.5201 36.404 56.8321 36.404 57.1601C36.404 57.5041 36.444 57.8401 36.524 58.1681C36.612 58.4881 36.756 58.7761 36.956 59.0321C37.156 59.2801 37.42 59.4801 37.748 59.6321C38.076 59.7841 38.48 59.8601 38.96 59.8601Z" fill="#0C2142"/>
<path d="M52.8819 70.1921C51.9859 70.1921 51.1659 70.0721 50.4219 69.8321C49.6859 69.5921 49.0539 69.2521 48.5259 68.8121C47.9979 68.3721 47.5859 67.8401 47.2899 67.2161C47.0019 66.5921 46.8579 65.8961 46.8579 65.1281C46.8579 64.1041 47.1099 63.2401 47.6139 62.5361C48.1179 61.8241 48.9019 61.2961 49.9659 60.9521C49.1179 60.6001 48.4819 60.1001 48.0579 59.4521C47.6419 58.8041 47.4339 58.0241 47.4339 57.1121C47.4339 56.4561 47.5659 55.8441 47.8299 55.2761C48.1019 54.7081 48.4779 54.2161 48.9579 53.8001C49.4379 53.3761 50.0099 53.0481 50.6739 52.8161C51.3459 52.5761 52.0819 52.4561 52.8819 52.4561C53.6819 52.4561 54.4139 52.5761 55.0779 52.8161C55.7499 53.0481 56.3259 53.3761 56.8059 53.8001C57.2859 54.2161 57.6579 54.7081 57.9219 55.2761C58.1939 55.8441 58.3299 56.4561 58.3299 57.1121C58.3299 58.0241 58.1179 58.8041 57.6939 59.4521C57.2699 60.1001 56.6379 60.6001 55.7979 60.9521C56.8619 61.2961 57.6459 61.8241 58.1499 62.5361C58.6539 63.2401 58.9059 64.1041 58.9059 65.1281C58.9059 65.8961 58.7579 66.5921 58.4619 67.2161C58.1739 67.8401 57.7659 68.3721 57.2379 68.8121C56.7099 69.2521 56.0739 69.5921 55.3299 69.8321C54.5939 70.0721 53.7779 70.1921 52.8819 70.1921ZM52.8819 67.8761C53.3699 67.8761 53.7979 67.8081 54.1659 67.6721C54.5339 67.5281 54.8419 67.3321 55.0899 67.0841C55.3459 66.8361 55.5379 66.5401 55.6659 66.1961C55.7939 65.8521 55.8579 65.4801 55.8579 65.0801C55.8579 64.1281 55.5939 63.4081 55.0659 62.9201C54.5379 62.4321 53.8099 62.1881 52.8819 62.1881C51.9539 62.1881 51.2259 62.4321 50.6979 62.9201C50.1699 63.4081 49.9059 64.1281 49.9059 65.0801C49.9059 65.4801 49.9699 65.8521 50.0979 66.1961C50.2259 66.5401 50.4139 66.8361 50.6619 67.0841C50.9179 67.3321 51.2299 67.5281 51.5979 67.6721C51.9659 67.8081 52.3939 67.8761 52.8819 67.8761ZM52.8819 59.8601C53.3619 59.8601 53.7659 59.7841 54.0939 59.6321C54.4219 59.4801 54.6859 59.2801 54.8859 59.0321C55.0859 58.7761 55.2259 58.4881 55.3059 58.1681C55.3939 57.8401 55.4379 57.5041 55.4379 57.1601C55.4379 56.8321 55.3859 56.5201 55.2819 56.2241C55.1779 55.9281 55.0219 55.6681 54.8139 55.4441C54.6059 55.2121 54.3419 55.0281 54.0219 54.8921C53.7019 54.7561 53.3219 54.6881 52.8819 54.6881C52.4419 54.6881 52.0619 54.7561 51.7419 54.8921C51.4219 55.0281 51.1539 55.2121 50.9379 55.4441C50.7299 55.6681 50.5739 55.9281 50.4699 56.2241C50.3739 56.5201 50.3259 56.8321 50.3259 57.1601C50.3259 57.5041 50.3659 57.8401 50.4459 58.1681C50.5339 58.4881 50.6779 58.7761 50.8779 59.0321C51.0779 59.2801 51.3419 59.4801 51.6699 59.6321C51.9979 59.7841 52.4019 59.8601 52.8819 59.8601Z" fill="#0C2142"/>
<path d="M66.3081 69.018C66.2721 69.11 66.2261 69.19 66.1701 69.258C66.1141 69.326 66.0501 69.382 65.9781 69.426C65.9061 69.474 65.8301 69.51 65.7501 69.534C65.6701 69.558 65.5921 69.57 65.5161 69.57H64.8921L68.3961 60.606C68.4641 60.438 68.5621 60.31 68.6901 60.222C68.8181 60.13 68.9721 60.084 69.1521 60.084H69.7821L66.3081 69.018Z" fill="#0C2142"/>
<path d="M73.575 67.89H75.333V62.832C75.333 62.636 75.339 62.43 75.351 62.214L74.103 63.258C74.051 63.302 73.997 63.332 73.941 63.348C73.889 63.364 73.837 63.372 73.785 63.372C73.705 63.372 73.631 63.356 73.563 63.324C73.499 63.288 73.451 63.248 73.419 63.204L72.951 62.562L75.597 60.312H76.815V67.89H78.375V69H73.575V67.89Z" fill="#0C2142"/>
<path d="M85.582 64.662C85.582 65.418 85.5 66.076 85.336 66.636C85.176 67.192 84.952 67.652 84.664 68.016C84.38 68.38 84.042 68.652 83.65 68.832C83.262 69.008 82.842 69.096 82.39 69.096C81.938 69.096 81.518 69.008 81.13 68.832C80.746 68.652 80.412 68.38 80.128 68.016C79.844 67.652 79.622 67.192 79.462 66.636C79.302 66.076 79.222 65.418 79.222 64.662C79.222 63.902 79.302 63.244 79.462 62.688C79.622 62.132 79.844 61.672 80.128 61.308C80.412 60.944 80.746 60.674 81.13 60.498C81.518 60.318 81.938 60.228 82.39 60.228C82.842 60.228 83.262 60.318 83.65 60.498C84.042 60.674 84.38 60.944 84.664 61.308C84.952 61.672 85.176 62.132 85.336 62.688C85.5 63.244 85.582 63.902 85.582 64.662ZM84.052 64.662C84.052 64.034 84.006 63.514 83.914 63.102C83.822 62.69 83.698 62.362 83.542 62.118C83.39 61.874 83.214 61.704 83.014 61.608C82.814 61.508 82.606 61.458 82.39 61.458C82.178 61.458 81.972 61.508 81.772 61.608C81.576 61.704 81.402 61.874 81.25 62.118C81.098 62.362 80.976 62.69 80.884 63.102C80.796 63.514 80.752 64.034 80.752 64.662C80.752 65.29 80.796 65.81 80.884 66.222C80.976 66.634 81.098 66.962 81.25 67.206C81.402 67.45 81.576 67.622 81.772 67.722C81.972 67.818 82.178 67.866 82.39 67.866C82.606 67.866 82.814 67.818 83.014 67.722C83.214 67.622 83.39 67.45 83.542 67.206C83.698 66.962 83.822 66.634 83.914 66.222C84.006 65.81 84.052 65.29 84.052 64.662Z" fill="#0C2142"/>
<path d="M92.5429 64.662C92.5429 65.418 92.4609 66.076 92.2969 66.636C92.1369 67.192 91.9129 67.652 91.6249 68.016C91.3409 68.38 91.0029 68.652 90.6109 68.832C90.2229 69.008 89.8029 69.096 89.3509 69.096C88.8989 69.096 88.4789 69.008 88.0909 68.832C87.7069 68.652 87.3729 68.38 87.0889 68.016C86.8049 67.652 86.5829 67.192 86.4229 66.636C86.2629 66.076 86.1829 65.418 86.1829 64.662C86.1829 63.902 86.2629 63.244 86.4229 62.688C86.5829 62.132 86.8049 61.672 87.0889 61.308C87.3729 60.944 87.7069 60.674 88.0909 60.498C88.4789 60.318 88.8989 60.228 89.3509 60.228C89.8029 60.228 90.2229 60.318 90.6109 60.498C91.0029 60.674 91.3409 60.944 91.6249 61.308C91.9129 61.672 92.1369 62.132 92.2969 62.688C92.4609 63.244 92.5429 63.902 92.5429 64.662ZM91.0129 64.662C91.0129 64.034 90.9669 63.514 90.8749 63.102C90.7829 62.69 90.6589 62.362 90.5029 62.118C90.3509 61.874 90.1749 61.704 89.9749 61.608C89.7749 61.508 89.5669 61.458 89.3509 61.458C89.1389 61.458 88.9329 61.508 88.7329 61.608C88.5369 61.704 88.3629 61.874 88.2109 62.118C88.0589 62.362 87.9369 62.69 87.8449 63.102C87.7569 63.514 87.7129 64.034 87.7129 64.662C87.7129 65.29 87.7569 65.81 87.8449 66.222C87.9369 66.634 88.0589 66.962 88.2109 67.206C88.3629 67.45 88.5369 67.622 88.7329 67.722C88.9329 67.818 89.1389 67.866 89.3509 67.866C89.5669 67.866 89.7749 67.818 89.9749 67.722C90.1749 67.622 90.3509 67.45 90.5029 67.206C90.6589 66.962 90.7829 66.634 90.8749 66.222C90.9669 65.81 91.0129 65.29 91.0129 64.662Z" fill="#0C2142"/>
</svg>
