<svg width="245" height="69" viewBox="0 0 245 69" fill="none" xmlns="http://www.w3.org/2000/svg">
<path fill-rule="evenodd" clip-rule="evenodd" d="M85.7912 18C85.6406 18 85.5186 18.1221 85.5186 18.2726V49.678C85.5186 49.8286 85.6406 49.9507 85.7912 49.9507H99.5092C101.607 49.9507 103.386 49.5518 104.833 48.7382C106.289 47.9276 107.389 46.7982 108.127 45.3529C108.862 43.9121 109.225 42.2398 109.225 40.3436C109.225 38.4711 108.692 36.7938 107.626 35.321C106.935 34.3546 106.035 33.6067 104.931 33.0743C105.526 32.645 106.041 32.1093 106.474 31.4681C107.339 30.2083 107.764 28.6838 107.764 26.9091C107.764 25.4542 107.419 24.0459 106.732 22.687C106.053 21.315 105.006 20.1955 103.601 19.3282C102.194 18.4357 100.402 18 98.2443 18H85.7912ZM106.248 31.3146L106.474 31.4671L106.474 31.4681L106.248 31.3146ZM104.644 32.9427C104.742 32.985 104.837 33.0289 104.931 33.0743C104.846 33.136 104.759 33.1954 104.67 33.2527C104.571 33.2071 104.469 33.1632 104.366 33.121C104.461 33.0641 104.554 33.0046 104.644 32.9427ZM86.0638 18.2726V18.2726H85.7912V18.2726H86.0638ZM91.3853 30.5404V23.4523H98.1789C99.3741 23.4523 100.27 23.7979 100.905 24.459C101.55 25.1308 101.876 25.9699 101.876 26.9963C101.876 27.7869 101.709 28.4325 101.393 28.9472C101.071 29.4703 100.637 29.8637 100.088 30.1318C99.5336 30.402 98.8993 30.5404 98.1789 30.5404H91.3853ZM136.34 43.2703C135.607 42.3536 135.134 41.1467 134.936 39.6348H151.677C151.82 39.6348 151.939 39.5244 151.949 39.3819C152.155 36.5306 151.84 34.0377 150.993 31.9115C150.146 29.786 148.84 28.1334 147.075 26.966C145.321 25.782 143.193 25.1971 140.707 25.1971C138.353 25.1971 136.268 25.7306 134.461 26.8057C132.656 27.8797 131.248 29.3939 130.237 31.3412C129.224 33.2775 128.723 35.5543 128.723 38.1627C128.723 40.5864 129.233 42.7409 130.262 44.6184L130.262 44.6198C131.304 46.4949 132.75 47.9632 134.596 49.0204C136.446 50.0797 138.588 50.6049 141.013 50.6049C143.331 50.6049 145.453 50.0023 147.373 48.7968C149.312 47.5883 150.744 45.8938 151.667 43.7216C151.697 43.6504 151.695 43.5696 151.663 43.4995C151.63 43.4294 151.569 43.3765 151.495 43.3541L146.304 41.7838C146.174 41.7446 146.035 41.8066 145.978 41.9295C145.49 42.9757 144.797 43.7691 143.902 44.3203C143.022 44.8566 141.961 45.1308 140.707 45.1308C138.766 45.1308 137.325 44.5012 136.34 43.2703ZM146.03 35.1203H135.088C135.334 33.9427 135.755 32.9879 136.341 32.2471L136.342 32.2459C137.324 30.9915 138.833 30.3441 140.925 30.3441C142.772 30.3441 144.074 30.912 144.895 32.002C145.447 32.7347 145.83 33.7689 146.03 35.1203ZM162.58 43.2703C161.846 42.3536 161.373 41.1467 161.175 39.6348H177.917C178.06 39.6348 178.178 39.5244 178.189 39.3819C178.394 36.5306 178.08 34.0377 177.232 31.9115C176.385 29.786 175.08 28.1335 173.314 26.9661C171.56 25.782 169.433 25.1971 166.947 25.1971C164.592 25.1971 162.507 25.7306 160.701 26.8057C158.896 27.8796 157.487 29.3938 156.477 31.3409C155.464 33.2773 154.962 35.5542 154.962 38.1627C154.962 40.5864 155.473 42.7409 156.501 44.6184L156.502 44.6198C157.543 46.4949 158.989 47.9632 160.836 49.0204C162.685 50.0797 164.827 50.6049 167.252 50.6049C169.57 50.6049 171.692 50.0025 173.612 48.7971C175.551 47.5887 176.983 45.894 177.906 43.7216C177.936 43.6504 177.935 43.5696 177.902 43.4995C177.869 43.4294 177.808 43.3765 177.734 43.3541L172.543 41.7838C172.414 41.7446 172.275 41.8066 172.217 41.9295C171.729 42.9759 171.036 43.7694 170.141 44.3207C169.26 44.8567 168.2 45.1308 166.947 45.1308C165.005 45.1308 163.564 44.5012 162.58 43.2703ZM172.27 35.1203H161.327C161.574 33.9427 161.994 32.9879 162.581 32.2471L162.581 32.2459C163.563 30.9915 165.072 30.3441 167.165 30.3441C169.011 30.3441 170.314 30.912 171.134 32.002C171.686 32.7347 172.069 33.7689 172.27 35.1203ZM210.33 43.2703C209.597 42.3536 209.124 41.1467 208.926 39.6348H225.667C225.81 39.6348 225.929 39.5244 225.939 39.3819C226.145 36.5306 225.83 34.0377 224.983 31.9115C224.135 29.786 222.83 28.1335 221.065 26.9661C219.311 25.782 217.183 25.1971 214.697 25.1971C212.343 25.1971 210.258 25.7306 208.451 26.8057C206.646 27.8796 205.238 29.3938 204.227 31.3409C203.214 33.2773 202.713 35.5542 202.713 38.1627C202.713 40.5864 203.223 42.7409 204.251 44.6184L204.252 44.6198C205.294 46.4949 206.74 47.9632 208.586 49.0204C210.436 50.0797 212.578 50.6049 215.003 50.6049C217.32 50.6049 219.442 50.0025 221.362 48.7971C223.302 47.5887 224.734 45.894 225.657 43.7216C225.687 43.6504 225.685 43.5696 225.652 43.4995C225.62 43.4294 225.559 43.3765 225.485 43.3541L220.294 41.7838C220.164 41.7446 220.025 41.8066 219.968 41.9295C219.48 42.9759 218.787 43.7694 217.891 44.3207C217.011 44.8567 215.95 45.1308 214.697 45.1308C212.755 45.1308 211.315 44.5012 210.33 43.2703ZM220.02 35.1203H209.078C209.324 33.9427 209.745 32.9879 210.331 32.2471L210.332 32.2459C211.314 30.9915 212.823 30.3441 214.915 30.3441C216.762 30.3441 218.064 30.912 218.885 32.002C219.437 32.7347 219.82 33.7689 220.02 35.1203ZM118.325 28.8174C118.291 28.8616 118.259 28.9062 118.226 28.951V26.124C118.226 25.9734 118.104 25.8514 117.954 25.8514H113.308C113.158 25.8514 113.036 25.9734 113.036 26.124V49.678C113.036 49.8286 113.158 49.9507 113.308 49.9507H118.586C118.737 49.9507 118.859 49.8286 118.859 49.678V37.7047C118.859 36.8253 118.965 36.0145 119.176 35.2709L119.176 35.2696C119.386 34.5149 119.706 33.8481 120.135 33.2666C120.575 32.6897 121.14 32.2132 121.835 31.838L121.845 31.8319C122.534 31.4188 123.307 31.1761 124.17 31.1065C125.061 31.0358 125.833 31.1006 126.492 31.2928C126.575 31.3168 126.663 31.3006 126.732 31.2492C126.801 31.1977 126.841 31.1169 126.841 31.0311V26.124C126.841 25.9907 126.745 25.877 126.613 25.8551C125.893 25.7351 125.152 25.7052 124.391 25.7647C123.627 25.8099 122.878 25.9522 122.145 26.1914C121.426 26.4165 120.764 26.7319 120.161 27.138C119.451 27.5774 118.838 28.1383 118.325 28.8174ZM181.867 25.8514C181.716 25.8514 181.594 25.9734 181.594 26.124V30.7257C181.594 30.8763 181.716 30.9984 181.867 30.9984H192.56L180.377 48.8044C180.346 48.8497 180.329 48.9034 180.329 48.9583V49.678C180.329 49.8286 180.452 49.9507 180.602 49.9507H200.732C200.883 49.9507 201.005 49.8286 201.005 49.678V45.0763C201.005 44.9257 200.883 44.8037 200.732 44.8037H189.34L201.481 27.0192C201.512 26.9739 201.528 26.9203 201.528 26.8655V26.124C201.528 25.9734 201.406 25.8514 201.256 25.8514H181.867ZM91.3853 44.4547V35.9927H99.0076C99.9434 35.9927 100.73 36.188 101.378 36.5662L101.382 36.5683C102.038 36.9371 102.531 37.4316 102.868 38.053C103.208 38.6777 103.38 39.3882 103.38 40.191C103.38 41.0791 103.18 41.8348 102.789 42.4687L102.788 42.4701C102.408 43.0938 101.88 43.5831 101.196 43.9392C100.511 44.2809 99.7332 44.4547 98.855 44.4547H91.3853Z" fill="#0C2142"/>
<path fill-rule="evenodd" clip-rule="evenodd" d="M50.6503 18.2352C50.392 17.9769 49.9732 17.9769 49.7149 18.2352L43.3203 24.6298C43.0621 24.8881 43.0621 25.3069 43.3203 25.5651L51.9884 34.2332L43.1839 43.0377C43.0599 43.1617 42.9902 43.3299 42.9902 43.5053C42.9902 43.6807 43.0599 43.849 43.1839 43.973L49.7313 50.5204C49.9896 50.7787 50.4084 50.7787 50.6667 50.5204L66.3336 34.8535C66.5918 34.5952 66.5918 34.1764 66.3336 33.9181L59.7862 27.3708L59.7724 27.3574L50.6503 18.2352Z" fill="#8A3EEC"/>
<path fill-rule="evenodd" clip-rule="evenodd" d="M26.66 18.1937C26.4017 17.9354 25.983 17.9354 25.7247 18.1937L19.3301 24.5883C19.0718 24.8466 19.0718 25.2654 19.3301 25.5236L27.9982 34.1917L19.1937 42.9962C19.0697 43.1202 19 43.2884 19 43.4638C19 43.6392 19.0697 43.8075 19.1937 43.9315L25.7411 50.4789C25.9994 50.7372 26.4181 50.7372 26.6764 50.4789L42.3433 34.812C42.6016 34.5537 42.6016 34.1349 42.3433 33.8766L35.796 27.3293L35.7822 27.3159L26.66 18.1937Z" fill="#8A3EEC"/>
</svg>
